<svg xmlns="http://www.w3.org/2000/svg" width="25" height="32" viewBox="0 0 25 32">
  <metadata><?xpacket begin="﻿" id="W5M0MpCehiHzreSzNTczkc9d"?>
<x:xmpmeta xmlns:x="adobe:ns:meta/" x:xmptk="Adobe XMP Core 5.6-c142 79.160924, 2017/07/13-01:06:39        ">
   <rdf:RDF xmlns:rdf="http://www.w3.org/1999/02/22-rdf-syntax-ns#">
      <rdf:Description rdf:about=""/>
   </rdf:RDF>
</x:xmpmeta>
                                                                                                    
                                                                                                    
                                                                                                    
                                                                                                    
                                                                                                    
                                                                                                    
                                                                                                    
                                                                                                    
                                                                                                    
                                                                                                    
                                                                                                    
                                                                                                    
                                                                                                    
                                                                                                    
                                                                                                    
                                                                                                    
                                                                                                    
                                                                                                    
                                                                                                    
                                                                                                    
                           
<?xpacket end="w"?></metadata>
<defs>
    <style>
      .cls-1 {
        fill: #269ac5;
        fill-rule: evenodd;
      }
    </style>
  </defs>
  <path id="Forma_1" data-name="Forma 1" class="cls-1" d="M642.429,461.037v-4.148a8.929,8.929,0,0,0-17.858,0v4.148A3.5,3.5,0,0,0,621,464.593v5.925A9.531,9.531,0,0,0,630.524,480h5.952A9.531,9.531,0,0,0,646,470.518v-5.925A3.574,3.574,0,0,0,642.429,461.037ZM634.1,470.4v3.081a0.6,0.6,0,0,1-1.19,0V470.4a1.782,1.782,0,0,1-1.191-1.659,1.786,1.786,0,0,1,3.572,0A1.675,1.675,0,0,1,634.1,470.4Zm4.762-9.363H628.143v-4.148a5.357,5.357,0,0,1,10.714,0v4.148Z" transform="translate(-621 -448)"/>
</svg>
